<svg width="22" height="22" viewBox="0 0 22 22" fill="none" xmlns="http://www.w3.org/2000/svg">
<path d="M11 14.6667L19.25 14.6667" stroke="#97A1B0" stroke-width="1.7" stroke-linecap="round" stroke-linejoin="round"/>
<path d="M2.75 14.6667H4.58333" stroke="#97A1B0" stroke-width="1.7" stroke-linecap="round" stroke-linejoin="round"/>
<path d="M7.79167 16.9583C9.05732 16.9583 10.0833 15.9323 10.0833 14.6667C10.0833 13.401 9.05732 12.375 7.79167 12.375C6.52601 12.375 5.5 13.401 5.5 14.6667C5.5 15.9323 6.52601 16.9583 7.79167 16.9583Z" stroke="#97A1B0" stroke-width="1.7" stroke-linecap="round" stroke-linejoin="round"/>
<path d="M17.4165 7.3335H19.2498" stroke="#97A1B0" stroke-width="1.7" stroke-linecap="round" stroke-linejoin="round"/>
<path d="M2.75 7.3335H11" stroke="#97A1B0" stroke-width="1.7" stroke-linecap="round" stroke-linejoin="round"/>
<path d="M14.2084 9.62484C15.4741 9.62484 16.5001 8.59882 16.5001 7.33317C16.5001 6.06752 15.4741 5.0415 14.2084 5.0415C12.9428 5.0415 11.9167 6.06752 11.9167 7.33317C11.9167 8.59882 12.9428 9.62484 14.2084 9.62484Z" stroke="#97A1B0" stroke-width="1.7" stroke-linecap="round" stroke-linejoin="round"/>
</svg>
