<svg width="449" height="133" viewBox="0 0 449 133" fill="none" xmlns="http://www.w3.org/2000/svg">
<path d="M223 50.5454C236.062 49.1704 240.92 43.8509 242.152 31.9402C242.679 26.8472 245.009 21.6859 244.654 16.5402C244.302 11.4326 240.589 6.91558 240.589 2" stroke="#C28DD1" stroke-width="4" stroke-linecap="round"/>
<path d="M271 51.2489C286.317 36.2836 306.451 25.9364 325.995 17.4391C335.784 13.1828 346.169 10.5526 356.404 7.62838C361.89 6.06094 367.276 4.1106 373.016 4.1106" stroke="#C28DD1" stroke-width="4" stroke-linecap="round"/>
<path d="M320 62.5058C329.903 55.3756 341.961 49.933 353.771 46.8712C361.635 44.8323 369.023 44.7975 377.144 44.9169C391.08 45.1218 404.469 51.8148 417.716 55.6266C427.104 58.3278 437.011 60.9009 446.64 62.5058" stroke="#C28DD1" stroke-width="4" stroke-linecap="round"/>
<path d="M356 78.6875C369.393 78.6875 380.625 84.7165 391.725 91.8987C397.748 95.7961 399.402 101.468 402.435 107.533" stroke="#C28DD1" stroke-width="4" stroke-linecap="round"/>
<path d="M227.348 109.025C225.133 109.921 223.375 110.678 222.075 111.297C221.801 112.058 221.628 112.566 221.555 112.822C221.33 113.553 221.117 114.172 220.915 114.677C220.728 115.161 220.504 115.606 220.244 116.014C219.957 116.464 219.708 116.796 219.497 117.008C219.303 117.217 219.049 117.356 218.732 117.426C218.205 117.543 217.715 117.532 217.26 117.393C216.819 117.232 216.572 117.029 216.517 116.783C216.545 116.74 216.652 116.311 216.84 115.496C217.025 114.663 217.467 113.579 218.166 112.245C218.135 112.105 218.053 111.939 217.918 111.747C217.784 111.556 217.713 111.443 217.705 111.408C217.592 110.898 218.255 110.107 219.694 109.033C220.295 107.5 220.943 105.974 221.639 104.457C222.353 102.936 223.234 101.128 224.282 99.0357C224.536 98.5189 224.904 98.0597 225.386 97.6582C225.869 97.2567 226.382 96.9957 226.927 96.8752C227.489 96.7509 227.922 96.7103 228.226 96.7535C228.531 96.7967 228.737 96.8984 228.846 97.0585C228.973 97.2147 229.071 97.4509 229.141 97.7671C229.188 98.3096 229.231 98.7145 229.272 98.9819C229.479 101.166 229.681 103.037 229.878 104.596C230.09 106.134 230.362 107.658 230.697 109.169C231.004 110.557 231.347 111.816 231.726 112.949C231.767 113.382 231.668 113.809 231.429 114.23C231.187 114.634 230.855 114.882 230.434 114.976C229.626 115.154 229.045 115.071 228.692 114.725C228.357 114.376 228.082 113.718 227.869 112.752C227.713 112.049 227.54 110.807 227.348 109.025ZM223.486 107.807C223.787 107.667 224.252 107.481 224.883 107.249L226.92 106.467C226.538 103.99 226.334 102.193 226.308 101.075C225.802 102.034 224.861 104.278 223.486 107.807ZM245.456 98.7732C245.549 98.8631 245.689 99.0349 245.874 99.2888C246.045 99.564 246.149 99.7807 246.184 99.9388C246.203 100.027 246.206 100.081 246.192 100.103C246.128 100.228 245.945 100.36 245.645 100.5C245.344 100.64 245.143 100.731 245.041 100.772L244.86 100.95L244.631 101.167C244.438 101.375 244.274 101.55 244.139 101.69C243.686 102.14 243.248 102.578 242.826 103.003C241.834 104.015 241.089 104.769 240.591 105.266C240.719 105.68 241.178 106.251 241.965 106.98C242.757 107.726 243.58 108.41 244.436 109.031C245.292 109.652 245.791 109.948 245.931 109.916C246.089 109.882 246.321 109.969 246.625 110.178C246.911 110.391 247.078 110.602 247.125 110.813C247.167 111.006 247.072 111.157 246.837 111.264C246.669 111.338 246.384 111.465 245.982 111.646C245.58 111.827 245.221 111.953 244.905 112.023C244.624 112.085 244.397 112.099 244.223 112.063C243.788 112.012 243.132 111.669 242.254 111.034C241.39 110.378 240.531 109.619 239.678 108.757C238.828 107.914 238.226 107.153 237.874 106.476C237.813 108.866 237.762 110.508 237.72 111.401C237.674 112.278 237.608 112.854 237.522 113.131C237.44 113.426 237.302 113.594 237.109 113.637L236.377 113.827C235.218 114.083 234.509 113.752 234.25 112.832C234.411 111.894 234.5 111.128 234.516 110.535C234.615 108.32 234.699 106.284 234.767 104.427C234.778 103.89 234.787 103.391 234.795 102.928C234.719 102.669 234.622 102.312 234.503 101.86C234.381 101.389 234.29 101.022 234.232 100.759C234.234 100.519 234.387 100.292 234.689 100.077C235.01 99.859 235.31 99.7188 235.591 99.6566C236.03 99.5595 236.529 99.6058 237.087 99.7956C237.645 99.9854 237.979 100.289 238.09 100.707L237.982 103.964L237.955 103.97L237.946 104.553C238.214 104.014 238.713 103.314 239.443 102.453C240.192 101.587 240.982 100.786 241.814 100.049C242.628 99.3159 243.305 98.8346 243.843 98.6049C243.984 98.5738 244.248 98.5613 244.637 98.5676C245.042 98.5699 245.316 98.6384 245.456 98.7732ZM258.718 105.844C259.859 105.923 260.815 106.246 261.585 106.813C262.488 107.479 262.941 108.484 262.943 109.829C262.921 111.142 262.539 112.166 261.799 112.901C261.045 113.657 260.114 114.029 259.006 114.016C258.155 114.002 257.736 113.523 257.748 112.581C257.733 112.179 257.819 111.819 258.007 111.501C258.173 111.17 258.403 110.999 258.695 110.99C259.082 111.07 259.408 111.173 259.676 111.298C259.933 111.296 260.209 111.17 260.504 110.921C260.803 110.689 260.953 110.407 260.953 110.076C260.965 109.631 260.655 109.312 260.023 109.12C259.409 108.925 258.77 108.827 258.106 108.826C257.81 108.818 257.526 108.825 257.254 108.849C256.161 109.072 255.557 108.92 255.44 108.393L255.377 107.357C254.966 107.835 254.468 108.332 253.883 108.848C253.297 109.365 252.784 109.672 252.345 109.769C249.745 110.344 248.257 109.78 247.88 108.076C247.239 105.178 247.413 101.841 248.402 98.0662C248.523 97.6156 248.679 97.2772 248.868 97.051C249.075 96.8209 249.469 96.6418 250.048 96.5136C250.663 96.3776 251.139 96.3643 251.477 96.4739C251.828 96.5621 252.029 96.7203 252.079 96.9487C252.091 97.0014 252.029 97.1808 251.894 97.487C251.751 97.7581 251.635 98.0234 251.545 98.2828C250.504 101.406 250.273 104.276 250.852 106.893C250.903 107.122 251.035 107.304 251.25 107.441C251.464 107.578 251.642 107.631 251.782 107.599C252.169 107.514 252.778 107.186 253.61 106.615C254.459 106.04 255.087 105.505 255.493 105.01L255.548 102.759C255.617 100.072 255.666 98.4214 255.696 97.8067C255.734 97.0614 255.853 96.4361 256.055 95.9309C256.27 95.4043 256.711 95.0671 257.379 94.9194C258.31 94.7135 258.837 94.8915 258.962 95.4536C258.981 95.5414 258.98 95.6615 258.958 95.8136C258.95 95.9444 258.947 96.0556 258.949 96.1473L258.84 100.649C258.789 102.834 258.748 104.566 258.718 105.844ZM274.388 104.671C274.384 104.985 274.27 105.222 274.048 105.382C273.829 105.559 273.518 105.693 273.114 105.782C271.902 106.05 271.236 105.912 271.115 105.368L271.052 104.331C270.641 104.809 270.143 105.306 269.557 105.823C268.972 106.339 268.459 106.646 268.02 106.743C265.42 107.318 263.932 106.754 263.555 105.05C262.914 102.152 263.088 98.8154 264.077 95.0406C264.198 94.5899 264.354 94.2515 264.543 94.0254C264.75 93.7953 265.143 93.6162 265.723 93.4879C266.338 93.3519 266.814 93.3387 267.151 93.4483C267.503 93.5364 267.703 93.6947 267.754 93.923C267.766 93.9757 267.704 94.1552 267.569 94.4614C267.426 94.7325 267.31 94.9978 267.22 95.2572C266.179 98.3802 265.948 101.25 266.527 103.868C266.578 104.096 266.71 104.278 266.925 104.415C267.139 104.552 267.317 104.605 267.457 104.574C267.844 104.488 268.453 104.16 269.284 103.589C270.134 103.014 270.762 102.479 271.168 101.984L271.223 99.7333C271.292 97.0465 271.341 95.3957 271.371 94.7811C271.409 94.0357 271.528 93.4105 271.73 92.9053C271.945 92.3786 272.386 92.0415 273.054 91.8938C273.985 91.6878 274.512 91.8659 274.637 92.428C274.656 92.5158 274.655 92.6358 274.633 92.788C274.625 92.9187 274.622 93.0299 274.624 93.1217L274.515 97.6232C274.422 101.2 274.379 103.549 274.388 104.671ZM280.933 95.761C281.233 95.9526 281.576 96.0056 281.963 95.9201C282.666 95.7646 283.177 95.4949 283.497 95.1108C283.524 94.1468 283.545 93.2854 283.561 92.5263C283.452 92.3662 283.305 92.2422 283.12 92.1542C282.745 91.9607 282.374 91.9047 282.005 91.9863C281.425 92.1146 280.96 92.4293 280.611 92.9304C280.261 93.4316 280.169 94.0598 280.337 94.8151C280.434 95.2542 280.632 95.5695 280.933 95.761ZM285.927 89.1011C286.252 89.158 286.46 89.3885 286.549 89.7925C286.592 89.9857 286.591 91.0638 286.546 93.0267C286.502 94.9897 286.432 97.5477 286.337 100.701L287.118 101.357C287.182 101.398 287.222 101.454 287.238 101.524C287.277 101.7 287.115 101.883 286.751 102.074C286.392 102.283 285.87 102.463 285.185 102.614C284.781 102.703 284.452 102.675 284.199 102.528C283.967 102.395 283.801 102.229 283.702 102.03C283.616 101.81 283.5 101.494 283.354 101.084C283.371 99.9937 283.387 98.9859 283.404 98.061C283.134 98.1759 282.852 98.2751 282.558 98.3588L282.543 98.4173C282.457 98.8601 282.209 99.5321 281.801 100.433C281.396 101.352 280.972 102.183 280.528 102.926C280.084 103.669 279.77 104.079 279.584 104.157C279.249 104.305 278.79 104.314 278.209 104.185C277.623 104.038 277.275 103.839 277.164 103.587C277.079 103.366 277.112 103.101 277.265 102.791C277.413 102.463 277.743 101.911 278.253 101.135C278.978 99.9984 279.554 99.1891 279.982 98.7076L280.245 98.4005C279.873 98.2987 279.515 98.1383 279.172 97.9195C278.245 97.3137 277.654 96.4312 277.398 95.2719C277.223 94.4814 277.323 93.6854 277.698 92.8838C278.06 92.1036 278.62 91.427 279.377 90.8541C280.149 90.2596 281.017 89.8556 281.983 89.6418C282.528 89.5214 283.048 89.4984 283.544 89.5731C283.735 89.4386 284.077 89.317 284.568 89.2082C285.148 89.0799 285.601 89.0442 285.927 89.1011Z" fill="#F49563"/>
<path d="M1.78711 128.53C3.27119 125.727 6.59312 124.739 9.37674 123.679C14.0963 121.881 18.3156 121.088 23.2167 120.375C25.3206 120.069 27.7429 119.599 29.8836 119.988C31.9907 120.371 34.3131 123.771 36.1934 124.899C41.4204 128.035 44.5978 124.571 49.4678 122.101C57.7233 117.915 65.5159 116.746 74.7666 118.351C80.1155 119.279 85.7493 119.07 91.0173 120.286C95.3083 121.276 99.0567 123.111 103.577 123.173C109.1 123.248 113.366 121.228 118.638 119.988C125.93 118.272 133.287 118.351 140.722 118.351C147.367 118.351 153.657 118.425 160.098 120.286C162.491 120.977 164.422 122.481 166.676 123.47C168.755 124.383 171.145 124.758 173.342 125.316C185.655 128.44 198.724 122.47 210.189 118.887" stroke="#F5A276" stroke-width="3" stroke-linecap="round"/>
</svg>
