<svg width="150" height="79" viewBox="0 0 150 79" fill="none" xmlns="http://www.w3.org/2000/svg">
<path d="M95.7588 61.3069C94.1168 61.9706 92.8139 62.532 91.8503 62.991C91.6473 63.5548 91.519 63.9314 91.4653 64.1208C91.2985 64.663 91.1404 65.1213 90.9911 65.4957C90.8519 65.8542 90.686 66.1846 90.4934 66.4866C90.2805 66.8205 90.0959 67.0662 89.9395 67.2237C89.7962 67.3783 89.6074 67.4815 89.3731 67.5333C88.9825 67.6198 88.6188 67.6115 88.2819 67.5085C87.9552 67.3896 87.7717 67.239 87.7313 67.0567C87.7516 67.0249 87.8315 66.7068 87.9709 66.1025C88.1074 65.4851 88.435 64.682 88.9537 63.6933C88.9306 63.5891 88.8693 63.4661 88.7696 63.3243C88.67 63.1825 88.6172 63.0986 88.6115 63.0725C88.528 62.695 89.0195 62.1083 90.0861 61.3124C90.5312 60.1762 91.0116 59.0457 91.5275 57.921C92.0565 56.7935 92.7092 55.4542 93.4859 53.9031C93.6742 53.5201 93.9472 53.1797 94.3047 52.8822C94.6622 52.5846 95.0427 52.3911 95.4463 52.3019C95.8629 52.2097 96.1839 52.1796 96.4095 52.2117C96.6351 52.2437 96.7883 52.319 96.8692 52.4377C96.9631 52.5535 97.036 52.7285 97.0878 52.9629C97.1221 53.365 97.1544 53.6651 97.1846 53.8632C97.3378 55.4817 97.4876 56.8687 97.634 58.0244C97.7906 59.1641 97.9927 60.2938 98.2404 61.4134C98.468 62.4419 98.7223 63.3756 99.0036 64.2147C99.0336 64.5358 98.9603 64.8524 98.7836 65.1646C98.604 65.4638 98.3579 65.648 98.0455 65.7171C97.4466 65.8496 97.0164 65.7877 96.7549 65.5315C96.5064 65.2724 96.303 64.7849 96.1446 64.0688C96.0293 63.5481 95.9008 62.6275 95.7588 61.3069ZM92.8962 60.404C93.119 60.3001 93.4641 60.1623 93.9314 59.9906L95.4417 59.4107C95.1586 57.5752 95.0072 56.2431 94.9878 55.4144C94.6125 56.1256 93.9154 57.7888 92.8962 60.404ZM109.179 53.7086C109.249 53.7752 109.352 53.9025 109.489 54.0907C109.616 54.2947 109.693 54.4553 109.719 54.5725C109.733 54.6375 109.735 54.678 109.725 54.6939C109.677 54.7865 109.542 54.8847 109.319 54.9886C109.096 55.0925 108.947 55.1596 108.872 55.1899L108.737 55.3221L108.568 55.4825C108.425 55.6371 108.303 55.7664 108.203 55.8704C107.867 56.2042 107.543 56.5286 107.231 56.8435C106.495 57.5934 105.943 58.1526 105.574 58.521C105.669 58.8277 106.008 59.251 106.592 59.791C107.179 60.344 107.789 60.8508 108.424 61.3113C109.058 61.7718 109.428 61.9905 109.532 61.9674C109.649 61.9415 109.82 62.006 110.046 62.161C110.258 62.3188 110.382 62.4759 110.416 62.6321C110.448 62.7753 110.377 62.8866 110.203 62.966C110.079 63.0208 109.868 63.1153 109.57 63.2495C109.271 63.3838 109.005 63.4768 108.771 63.5286C108.563 63.5747 108.394 63.5847 108.265 63.5585C107.943 63.5206 107.457 63.2663 106.806 62.7957C106.166 62.3092 105.53 61.7467 104.897 61.1084C104.267 60.483 103.821 59.9193 103.56 59.4172C103.515 61.1888 103.477 62.4057 103.446 63.0681C103.412 63.7174 103.363 64.1447 103.299 64.35C103.238 64.5683 103.136 64.6933 102.993 64.725L102.451 64.8655C101.591 65.0556 101.066 64.8099 100.874 64.1286C100.993 63.4331 101.059 62.8655 101.071 62.4259C101.145 60.7845 101.207 59.2755 101.257 57.8987C101.265 57.501 101.272 57.1308 101.278 56.788C101.222 56.5957 101.15 56.3317 101.062 55.996C100.971 55.6474 100.904 55.3755 100.861 55.1802C100.862 55.0023 100.975 54.8339 101.2 54.6751C101.437 54.5133 101.66 54.4094 101.868 54.3633C102.194 54.2913 102.563 54.3257 102.977 54.4663C103.39 54.607 103.638 54.8321 103.72 55.1417L103.64 57.556L103.62 57.5604L103.613 57.992C103.812 57.5931 104.182 57.0742 104.723 56.4355C105.278 55.7939 105.863 55.2001 106.48 54.654C107.083 54.1108 107.585 53.7541 107.984 53.5838C108.088 53.5607 108.284 53.5515 108.572 53.5561C108.873 53.5579 109.075 53.6087 109.179 53.7086ZM119.008 58.9491C119.854 59.0077 120.563 59.247 121.134 59.667C121.803 60.1608 122.138 60.9059 122.14 61.9023C122.123 62.8756 121.841 63.6346 121.292 64.1793C120.733 64.7399 120.043 65.0154 119.222 65.006C118.591 64.9953 118.281 64.6407 118.29 63.9422C118.279 63.6442 118.343 63.3775 118.482 63.1419C118.605 62.8961 118.775 62.7697 118.992 62.7627C119.278 62.8223 119.52 62.8984 119.718 62.9912C119.909 62.9899 120.114 62.8968 120.332 62.7119C120.554 62.54 120.665 62.3312 120.665 62.0853C120.674 61.7556 120.444 61.5196 119.976 61.3775C119.52 61.2324 119.047 61.1597 118.555 61.1592C118.335 61.1532 118.125 61.1588 117.924 61.176C117.114 61.3415 116.666 61.229 116.579 60.8384L116.532 60.0705C116.228 60.4245 115.859 60.7929 115.425 61.1758C114.991 61.5586 114.611 61.786 114.285 61.858C112.359 62.2843 111.255 61.866 110.976 60.6032C110.501 58.4552 110.63 55.9823 111.363 53.1846C111.453 52.8506 111.568 52.5998 111.708 52.4321C111.862 52.2616 112.153 52.1289 112.583 52.0338C113.039 51.933 113.391 51.9232 113.642 52.0044C113.902 52.0698 114.051 52.187 114.088 52.3563C114.097 52.3953 114.051 52.5283 113.951 52.7553C113.845 52.9562 113.759 53.1528 113.692 53.3451C112.921 55.6598 112.75 57.787 113.179 59.7267C113.216 59.896 113.314 60.0313 113.473 60.1327C113.632 60.234 113.764 60.2732 113.868 60.2502C114.155 60.1868 114.606 59.9436 115.222 59.5204C115.852 59.0944 116.317 58.6978 116.618 58.3308L116.659 56.6626C116.71 54.6712 116.747 53.4478 116.769 52.9922C116.797 52.4398 116.885 51.9764 117.035 51.602C117.194 51.2116 117.521 50.9618 118.016 50.8523C118.706 50.6997 119.097 50.8316 119.189 51.2482C119.204 51.3133 119.203 51.4023 119.187 51.5151C119.181 51.6119 119.179 51.6944 119.18 51.7623L119.099 55.0987C119.061 56.7184 119.031 58.0019 119.008 58.9491ZM130.623 58.0798C130.619 58.3126 130.535 58.4883 130.37 58.6067C130.208 58.7382 129.978 58.837 129.678 58.9032C128.78 59.102 128.286 58.9996 128.197 58.596L128.15 57.828C127.846 58.182 127.477 58.5505 127.042 58.9333C126.608 59.3161 126.228 59.5436 125.903 59.6156C123.976 60.0418 122.873 59.6236 122.594 58.3608C122.118 56.2127 122.247 53.7398 122.98 50.9421C123.07 50.6081 123.185 50.3573 123.326 50.1897C123.479 50.0192 123.771 49.8864 124.2 49.7913C124.656 49.6905 125.009 49.6807 125.259 49.762C125.519 49.8273 125.668 49.9446 125.706 50.1138C125.714 50.1529 125.669 50.2859 125.569 50.5128C125.463 50.7138 125.377 50.9104 125.31 51.1026C124.538 53.4173 124.367 55.5445 124.796 57.4843C124.834 57.6535 124.932 57.7888 125.091 57.8902C125.25 57.9916 125.382 58.0308 125.486 58.0077C125.772 57.9443 126.224 57.7011 126.84 57.2779C127.469 56.8519 127.935 56.4553 128.236 56.0883L128.277 54.4201C128.328 52.4288 128.364 51.2053 128.386 50.7498C128.414 50.1974 128.503 49.7339 128.652 49.3595C128.812 48.9692 129.139 48.7193 129.634 48.6098C130.324 48.4572 130.715 48.5892 130.807 49.0058C130.821 49.0709 130.82 49.1598 130.804 49.2726C130.798 49.3695 130.796 49.4519 130.798 49.5199L130.716 52.8562C130.647 55.507 130.616 57.2482 130.623 58.0798ZM135.473 51.4761C135.696 51.618 135.95 51.6573 136.237 51.5939C136.757 51.4787 137.137 51.2788 137.374 50.9941C137.393 50.2797 137.409 49.6412 137.421 49.0787C137.34 48.96 137.231 48.8681 137.094 48.8029C136.816 48.6594 136.541 48.6179 136.268 48.6784C135.838 48.7735 135.494 49.0067 135.234 49.3781C134.975 49.7496 134.907 50.2152 135.031 50.775C135.103 51.1004 135.251 51.3341 135.473 51.4761ZM139.174 46.5401C139.416 46.5822 139.57 46.753 139.636 47.0524C139.668 47.1956 139.667 47.9947 139.634 49.4495C139.6 50.9044 139.549 52.8003 139.479 55.1373L140.057 55.6238C140.105 55.6542 140.135 55.6954 140.146 55.7475C140.175 55.8777 140.055 56.0135 139.786 56.155C139.519 56.3095 139.132 56.4429 138.625 56.5552C138.325 56.6215 138.082 56.6003 137.894 56.4916C137.722 56.3931 137.599 56.2701 137.525 56.1225C137.462 55.959 137.376 55.7254 137.268 55.4216C137.28 54.6131 137.292 53.8662 137.305 53.1807C137.105 53.2658 136.896 53.3394 136.678 53.4014L136.667 53.4448C136.603 53.773 136.419 54.271 136.116 54.9389C135.816 55.6198 135.502 56.2356 135.173 56.7863C134.844 57.337 134.611 57.6412 134.474 57.6989C134.225 57.8086 133.885 57.8155 133.454 57.7196C133.02 57.6107 132.762 57.463 132.68 57.2763C132.617 57.1129 132.641 56.9162 132.754 56.6864C132.865 56.4435 133.109 56.0345 133.487 55.4592C134.024 54.6166 134.451 54.0168 134.768 53.6599L134.964 53.4323C134.688 53.3569 134.422 53.238 134.168 53.0758C133.481 52.6268 133.043 51.9727 132.853 51.1135C132.723 50.5277 132.798 49.9377 133.076 49.3436C133.344 48.7653 133.759 48.2639 134.32 47.8392C134.892 47.3987 135.536 47.0992 136.252 46.9408C136.655 46.8515 137.041 46.8345 137.408 46.8898C137.55 46.7902 137.803 46.7 138.168 46.6194C138.597 46.5243 138.933 46.4979 139.174 46.5401Z" fill="#F49563"/>
<path d="M0.999859 23.7508C6.87665 23.1515 9.07945 20.6753 9.67613 15.0975C9.93127 12.7125 10.997 10.3017 10.856 7.8889C10.716 5.49403 9.06325 3.36432 9.08092 1.06063" stroke="#C28DD1" stroke-width="2" stroke-linecap="round"/>
<path d="M32.9999 23.7508C40.2532 16.5832 49.7526 11.6618 58.9681 7.63104C63.5841 5.61207 68.4741 4.38003 73.2944 3.00557C75.8782 2.26883 78.4164 1.34692 81.1136 1.36761" stroke="#C28DD1" stroke-width="2" stroke-linecap="round"/>
<path d="M87.9999 25.1253C92.727 21.8748 98.4713 19.4099 104.089 18.0416C107.83 17.1304 111.338 17.1413 115.194 17.2259C121.81 17.3711 128.142 20.5049 134.419 22.3101C138.866 23.5894 143.561 24.8115 148.127 25.5864" stroke="#C28DD1" stroke-width="2" stroke-linecap="round"/>
</svg>
